<svg width="24" height="24" viewBox="0 0 24 24" fill="none" xmlns="http://www.w3.org/2000/svg">
<g id="Icon">
<path id="Mask" fill-rule="evenodd" clip-rule="evenodd" d="M9.86329 18.0001C9.58729 18.0001 9.32329 17.8861 9.13429 17.6851L4.27129 12.5061C3.89229 12.1041 3.91329 11.4711 4.31529 11.0931C4.71829 10.7151 5.35129 10.7351 5.72829 11.1371L9.85329 15.5281L18.2613 6.32611C18.6353 5.91711 19.2673 5.89011 19.6753 6.26211C20.0823 6.63411 20.1103 7.26711 19.7383 7.67411L10.6013 17.6741C10.4143 17.8801 10.1483 17.9981 9.87029 18.0001H9.86329Z" fill="#49225B"/>
<mask id="mask0_207_11781" style="mask-type:luminance" maskUnits="userSpaceOnUse" x="4" y="6" width="16" height="12">
<path id="Mask_2" fill-rule="evenodd" clip-rule="evenodd" d="M9.86329 18.0001C9.58729 18.0001 9.32329 17.8861 9.13429 17.6851L4.27129 12.5061C3.89229 12.1041 3.91329 11.4711 4.31529 11.0931C4.71829 10.7151 5.35129 10.7351 5.72829 11.1371L9.85329 15.5281L18.2613 6.32611C18.6353 5.91711 19.2673 5.89011 19.6753 6.26211C20.0823 6.63411 20.1103 7.26711 19.7383 7.67411L10.6013 17.6741C10.4143 17.8801 10.1483 17.9981 9.87029 18.0001H9.86329Z" fill="white"/>
</mask>
<g mask="url(#mask0_207_11781)">
<g id="&#240;&#159;&#142;&#168; Color">
<rect id="Base" width="24" height="24" fill="#49225B"/>
</g>
</g>
</g>
</svg>
